<?xml version="1.0" encoding="UTF-8"?>
<svg width="40px" height="40px" viewBox="0 0 1047 1694" version="1.1" xmlns="http://www.w3.org/2000/svg" xmlns:xlink="http://www.w3.org/1999/xlink">
    <!-- Generator: Sketch 53.2 (72643) - https://sketchapp.com -->
    <title>17813-pin-308802</title>
    <desc>Created with Sketch.</desc>
    <g id="Page-1" stroke="none" stroke-width="1" fill="none" fill-rule="evenodd">
        <g id="17813-pin-308802" fill-rule="nonzero">
            <path d="M524.94,1693.6 C486.174,1503.3 417.82,1344.93 335.04,1198.16 C273.633,1089.29 202.5,988.8 136.68,883.22 C114.708,847.977 95.746,810.744 74.633,774.17 C32.417,701.033 -1.811,616.23 0.364,506.24 C2.489,398.77 33.572,312.56 78.394,242.07 C152.113,126.13 275.594,31.08 441.274,6.1 C576.744,-14.324 703.754,20.182 793.814,72.848 C867.41,115.886 924.414,173.378 967.734,241.128 C1012.954,311.844 1044.094,395.388 1046.704,504.358 C1048.0441,560.188 1038.9041,611.888 1026.024,654.778 C1012.994,698.187 992.034,734.473 973.384,773.228 C936.974,848.887 891.334,918.208 845.524,987.568 C709.084,1194.178 581.024,1404.878 524.944,1693.598 L524.94,1693.6 Z" id="Path" fill="#ff9900"></path>
            <circle id="Oval" fill="#34344c" cx="523.55" cy="505.05" r="183.33"></circle>
        </g>
    </g>
</svg>